<svg xmlns="http://www.w3.org/2000/svg" viewBox="0 0 128 128">
  <defs>
    <linearGradient id="amberGlow" x1="0" y1="0" x2="1" y2="1">
      <stop offset="0" stop-color="#ffe18d"/>
      <stop offset="0.45" stop-color="#eda23b"/>
      <stop offset="1" stop-color="#b65d18"/>
    </linearGradient>
  </defs>
  <path d="M30 90 22 66l10-28 30-12 30 18 10 24-8 26-24 10-32-2Z" fill="url(#amberGlow)" stroke="#4f2510" stroke-linejoin="round" stroke-width="8"/>
  <path d="M44 42c8-8 18-12 30-10 10 2 18 8 24 18-8-2-16 0-22 6-8 8-12 20-12 34-6-2-12-6-18-12-12-12-12-24-2-36Z" fill="#ffd473" opacity=".72"/>
  <path d="M48 50c6 10 16 18 30 24" fill="none" stroke="#fff6d0" stroke-linecap="round" stroke-width="6"/>
  <circle cx="52" cy="50" r="4" fill="#fff8df"/>
  <circle cx="74" cy="80" r="4" fill="#7a3410" opacity=".35"/>
</svg>
